<svg width="400" height="653" viewBox="0 0 400 653" fill="none" xmlns="http://www.w3.org/2000/svg">
<path d="M389.964 300.203L45.8781 6.52616C41.6181 2.89021 36.5525 0.67608 31.2489 0.131866C25.9453 -0.412348 20.6134 0.734852 15.8505 3.44493C11.0876 6.155 7.08197 10.3209 4.28241 15.4757C1.48286 20.6306 0 26.5708 0 32.6307V619.984C0.0160489 626.009 1.49802 631.912 4.28166 637.039C7.0653 642.165 11.0419 646.313 15.7706 649.025C20.3533 651.456 25.4192 652.464 30.4549 651.949C35.4906 651.433 40.3168 649.411 44.4444 646.088L388.53 352.412C392.092 349.372 394.982 345.431 396.973 340.9C398.964 336.369 400 331.373 400 326.307C400 321.241 398.964 316.245 396.973 311.714C394.982 307.183 392.092 303.242 388.53 300.203H389.964Z" fill="white"/>
</svg>
