<svg width="475" height="263" viewBox="0 0 475 263" fill="none" xmlns="http://www.w3.org/2000/svg">
<path fill-rule="evenodd" clip-rule="evenodd" d="M251.353 0.743194C207.538 7.66319 181.864 27.7052 172.607 62.2122C171.062 67.9722 170.441 73.2932 170.392 81.2122C170.3 95.9672 172.076 101.253 179.631 108.708C189.967 118.908 203.486 123.39 220.721 122.331C241.509 121.053 254.201 114.443 260.653 101.533C264.687 93.4602 264.837 87.1912 261.102 82.7532C255.897 76.5672 251.724 75.6922 233.971 77.0642C222.601 77.9422 221.646 77.3972 227.176 73.1792C234.889 67.2952 250.132 65.8282 259.281 70.0882C264.427 72.4842 269.783 78.1142 271.691 83.1332C276.197 94.9852 267.517 113.307 253.141 122.285C242.632 128.849 233.474 131.038 216.721 130.993C204.833 130.961 202.266 130.639 195.221 128.296C186.095 125.261 175.134 118.284 170.705 112.691C164.437 104.777 162.445 98.5192 161.929 85.1122L161.458 72.8952L158.84 72.3532C148.364 70.1872 129.706 69.3972 115.886 70.5362C67.7621 74.5032 28.7831 94.7412 9.4371 125.808C4.6651 133.47 -0.797896 145.527 0.0971043 146.421C0.363104 146.688 3.56609 145.711 7.21409 144.252C22.1291 138.285 36.6441 135.87 46.6411 137.692C67.0101 141.404 77.6561 155.613 81.7021 184.487C82.9371 193.304 88.0521 204.043 93.7121 209.703C98.4001 214.391 105.928 218.402 111.805 219.341C115.713 219.966 115.99 219.868 115.267 218.116C109.511 204.177 110.54 185.17 117.57 175.605C125.99 164.149 146.082 152.505 160.675 150.624C178.501 148.326 196.286 157.689 205.435 174.187C207.904 178.641 208.221 180.234 208.221 188.212C208.221 195.841 207.823 198.05 205.612 202.712C200.497 213.492 190.548 220.572 182.336 219.275C180.073 218.917 176.588 217.549 174.592 216.234C170.933 213.824 167.989 208.283 169.779 207.176C170.296 206.857 173.862 207.608 177.705 208.846C184.327 210.979 184.87 211.011 188.107 209.468C194.74 206.305 199.597 197.359 199.677 188.158C199.766 177.886 190.517 166.131 178.721 161.527C170.743 158.413 160.214 158.578 151.942 161.946C137.451 167.847 124.169 178.603 121.977 186.212C119.915 193.369 119.477 200.218 120.702 206.123C122.15 213.093 127.796 225.449 132.567 232.084C142.548 245.965 165.89 258.726 186.922 261.802C212.589 265.555 237.51 257.637 256.862 239.579C260.951 235.764 265.11 232.723 266.221 232.734C269.649 232.771 275.875 236.202 285.221 243.203C300.804 254.877 312.511 259.345 330.221 260.377C361.848 262.22 383.505 247.424 390.773 219.009C391.844 214.82 392.717 209.777 392.713 207.802L392.704 204.212L384.463 204.05C375.085 203.866 368.059 201.751 357.835 196.033C337.923 184.898 328.893 165.59 331.767 140.295C334.57 115.632 347.594 103.313 370.721 103.451C386.701 103.546 398.239 111.649 395.101 120.571C394.026 123.63 387.78 128.171 386.462 126.853C385.927 126.318 385.961 124.504 386.544 122.391C387.731 118.091 386.712 116.39 381.721 114.34C372.883 110.71 359.468 111.986 351.554 117.21C343.347 122.627 338.411 140.58 340.725 156.597C342.918 171.783 350.288 181.899 364.785 189.623C378.297 196.823 390.426 198.236 407.986 194.658C438.395 188.461 459.112 172.881 469.081 148.712C476.743 130.136 476.591 106.114 468.674 84.4222C460.252 61.3432 443.488 45.8202 420.221 39.5572C407.792 36.2112 384.631 36.4262 367.431 40.0472L354.641 42.7402L348.931 36.5682C335.032 21.5442 312.499 8.0172 293.221 3.1232C281.987 0.272199 261.654 -0.883806 251.353 0.743194Z" fill="#AB1B21"/>
</svg>
